<?xml version="1.0" standalone="no"?><!DOCTYPE svg PUBLIC "-//W3C//DTD SVG 1.1//EN" "http://www.w3.org/Graphics/SVG/1.1/DTD/svg11.dtd"><svg t="1608084642943" class="icon" viewBox="0 0 1024 1024" version="1.1" xmlns="http://www.w3.org/2000/svg" p-id="2534" xmlns:xlink="http://www.w3.org/1999/xlink" width="32" height="32"><defs><style type="text/css"></style></defs><path d="M948.759 72.346a27.73 27.73 0 0 0-28.13-6.781L84.761 335.432a27.73 27.73 0 0 0-11.088 45.999L277.682 585.44c0.01 0.096 0.028 0.191 0.039 0.286v292.757c0 15.316 12.416 27.732 27.732 27.732 8.676 0 16.415-3.989 21.5-10.227a27.6 27.6 0 0 0 13.196-9.821l100.432-137.829 199.093 199.094a27.731 27.731 0 0 0 45.999-11.088L955.54 100.476a27.732 27.732 0 0 0-6.781-28.13z m-615.575 729.2V598.601l249.68-139.706-249.68 342.651z m313.642 74.602L473.644 702.965l225.261-309.14c8.154-5.54 12.512-14.819 12.078-24.212 0.472-9.049-3.477-18.149-11.346-23.883-12.293-8.957-29.476-6.323-38.549 5.84L315.576 544.898 144.957 374.279l741.157-239.288-239.288 741.157z" fill="#E75934" p-id="2535"></path></svg>