<?xml version="1.0" standalone="no"?><!DOCTYPE svg PUBLIC "-//W3C//DTD SVG 1.1//EN" "http://www.w3.org/Graphics/SVG/1.1/DTD/svg11.dtd"><svg t="1605664919936" class="icon" viewBox="0 0 1024 1024" version="1.1" xmlns="http://www.w3.org/2000/svg" p-id="3711" width="64" height="64" xmlns:xlink="http://www.w3.org/1999/xlink"><defs><style type="text/css"></style></defs><path d="M960.5 487.4c0-47-38.1-85.1-85.1-85.1H661.5c18.6-59.1 50.9-193.8-32.1-283.7-55.6-60.2-107.7 8.1-107.7 8.1S578.4 369.9 341 477.5v402.8h449.9c47 0 85.1-38.1 85.1-85.1v-7.1c26.9-14.3 45.2-42.6 45.2-75.2V705c0-9.3-1.5-18.2-4.2-26.5 20.2-15.6 33.2-40 33.2-67.4v-7.9c0-17.6-5.4-34-14.6-47.6 15.4-15.4 25-36.7 25-60.2v-8z" fill="#E5ECFF" p-id="3712"></path><path d="M370.2 928.5H95.5C79.8 928.5 67 915.7 67 900V424.3c0-15.7 12.8-28.5 28.5-28.5h274.7c15.7 0 28.5 12.8 28.5 28.5V900c0 15.7-12.8 28.5-28.5 28.5z" fill="#5B79FB" p-id="3713"></path><path d="M960.5 487.4c0-47-38.1-85.1-85.1-85.1h-83c1.3 13.9 2 28 2 42.3 0 208.8-141.8 384.4-334.3 435.8h330.8c47 0 85.1-38.1 85.1-85.1v-7.1c26.9-14.3 45.2-42.6 45.2-75.2v-7.9c0-9.3-1.5-18.2-4.2-26.5 20.2-15.6 33.2-40 33.2-67.4v-7.9c0-17.6-5.4-34-14.6-47.6 15.4-15.4 25-36.7 25-60.2v-8.1z" fill="#C7D8FF" p-id="3714"></path><path d="M349.1 823.8c0 25.6-20.7 46.3-46.3 46.3s-46.3-20.7-46.3-46.3c0-25.6 20.7-46.3 46.3-46.3s46.3 20.7 46.3 46.3z" fill="#FFFFFF" p-id="3715"></path><path d="M850 86.9c-3.6-10.5-9.5-10.5-13 0l-20.1 59.3c-3.6 10.5-15.1 22-25.6 25.6l-58.9 20c-10.5 3.6-10.5 9.5 0 13.1l58.5 20.4c10.5 3.6 22 15.2 25.6 25.7l20.4 59.4c3.6 10.5 9.5 10.5 13 0l19.9-59.1c3.5-10.5 15-22.1 25.5-25.7l59.8-20.5c10.5-3.6 10.5-9.4 0-13l-58.8-19.9c-10.5-3.6-22.1-15-25.7-25.5L850 86.9z" fill="#FF7E71" p-id="3716"></path></svg>