<?xml version="1.0" standalone="no"?><!DOCTYPE svg PUBLIC "-//W3C//DTD SVG 1.1//EN" "http://www.w3.org/Graphics/SVG/1.1/DTD/svg11.dtd"><svg t="1607747909321" class="icon" viewBox="0 0 1649 1024" version="1.1" xmlns="http://www.w3.org/2000/svg" p-id="2518" xmlns:xlink="http://www.w3.org/1999/xlink" width="25.765625" height="16"><defs><style type="text/css"></style></defs><path d="M119.922 0h1529.856l-119.922 1024H0L119.922 0z m400.611 797.468l290.532-530.09h-107.52L485.262 668.444l-66.901-401.066H310.044l94.55 530.09h115.94z m223.005 0h108.658l109.909-530.09H853.902l-110.421 530.09z m317.554 0l42.097-202.126h69.405c46.762 0 78.677-1.138 95.687-3.584 29.24-4.096 52.508-10.07 69.746-17.92 17.294-7.85 33.393-19.342 48.355-34.531 15.019-15.19 27.705-35.442 38.002-60.758 10.297-25.315 15.474-51.313 15.474-78.108 0-28.9-6.486-53.76-19.456-74.638a109.34 109.34 0 0 0-52.68-44.829c-22.186-9.102-52.337-13.596-90.453-13.596h-214.357l-110.364 530.09h108.544z m60.074-289.962l32.029-152.974h77.653c35.271 0 58.027 1.877 68.21 5.632 10.183 3.697 18.09 9.67 23.722 17.863a54.329 54.329 0 0 1 8.42 31.46c0 19.057-5.518 36.522-16.498 52.45a93.867 93.867 0 0 1-45.34 34.703c-19.172 7.225-57.458 10.809-114.745 10.809h-33.45z" fill="#FE6A00" p-id="2519"></path></svg>