<?xml version="1.0" standalone="no"?><!DOCTYPE svg PUBLIC "-//W3C//DTD SVG 1.1//EN" "http://www.w3.org/Graphics/SVG/1.1/DTD/svg11.dtd"><svg t="1608084630396" class="icon" viewBox="0 0 1024 1024" version="1.1" xmlns="http://www.w3.org/2000/svg" p-id="2390" xmlns:xlink="http://www.w3.org/1999/xlink" width="32" height="32"><defs><style type="text/css"></style></defs><path d="M680.044 778.887L657.25 645.898c-5.78-33.726 5.415-68.134 29.94-92.026l96.71-94.21-133.687-19.448c-33.904-4.932-63.211-26.197-78.385-56.875l-59.831-120.97-59.832 120.97c-15.173 30.678-44.48 51.943-78.384 56.875l-133.688 19.447 96.71 94.211c24.526 23.892 35.72 58.3 29.94 92.026l-22.792 132.989 119.602-62.745a104.292 104.292 0 0 1 96.888 0l119.602 62.745z m-182.952 1.018l-191.41 100.417c-15.672 8.221-35.05 2.198-43.282-13.453a31.975 31.975 0 0 1-3.218-20.287l36.477-212.835a31.985 31.985 0 0 0-9.212-28.316L131.672 454.657c-12.672-12.345-12.925-32.612-0.564-45.268a32.068 32.068 0 0 1 18.325-9.324l213.954-31.124a32.05 32.05 0 0 0 24.119-17.5l95.754-193.6c7.84-15.85 27.062-22.353 42.933-14.523a32.032 32.032 0 0 1 14.543 14.523l95.754 193.6a32.05 32.05 0 0 0 24.118 17.5l213.955 31.124c17.517 2.548 29.65 18.796 27.098 36.29a31.997 31.997 0 0 1-9.337 18.302L737.549 605.43a31.985 31.985 0 0 0-9.212 28.316l36.477 212.835c2.986 17.426-8.738 33.97-26.186 36.953a32.09 32.09 0 0 1-20.314-3.213l-191.41-100.417a32.09 32.09 0 0 0-29.812 0z" fill="#5090F1" p-id="2391"></path></svg>