<?xml version="1.0" standalone="no"?><!DOCTYPE svg PUBLIC "-//W3C//DTD SVG 1.1//EN" "http://www.w3.org/Graphics/SVG/1.1/DTD/svg11.dtd"><svg t="1618452661889" class="icon" viewBox="0 0 1024 1024" version="1.1" xmlns="http://www.w3.org/2000/svg" p-id="1498" xmlns:xlink="http://www.w3.org/1999/xlink" width="32" height="32"><defs><style type="text/css"></style></defs><path d="M143.1 99.8h597.1c44 0 79.6 35.6 79.6 79.6v664c0 44-35.6 79.6-79.6 79.6H143.1c-44 0-79.6-35.6-79.6-79.6v-664c0-44 35.6-79.6 79.6-79.6z" fill="#333333" p-id="1499"></path><path d="M501.3 478.2h-252c-18.3 0-33.2 14.9-33.2 33.2s14.9 33.2 33.2 33.2h252.1c18.3 0 33.2-14.9 33.2-33.2s-14.9-33.2-33.3-33.2zM395.2 650.7H249.3c-18.3 0-33.2 14.9-33.2 33.2 0 18.3 14.9 33.2 33.2 33.2h145.9c18.3 0 33.2-14.9 33.2-33.2 0-18.3-14.9-33.2-33.2-33.2zM634 305.8H249.3c-18.3 0-33.2 14.9-33.2 33.2s14.9 33.2 33.2 33.2H634c18.3 0 33.2-14.9 33.2-33.2s-14.9-33.2-33.2-33.2z" fill="#FFFFFF" p-id="1500"></path><path d="M957 475.7c-1.2-6.1-3-12.2-5.4-17.7l-0.1-0.3-0.2-0.3c-5.8-12.7-13.7-24.8-23.7-35.9-10.4-11.6-20.5-19.9-30.6-25.4-5.3-2.8-10.7-5-16.9-6.9-7.3-2.2-14.5-3.4-22-3.8-1.3 0-2.1-0.1-3-0.1-7.7 0-15.4 1.2-23.1 3.6-8.9 2.8-17.6 7.4-25.6 13.9l-0.5 0.4-0.5 0.4c-3.9 3.3-8.5 7.5-13.5 12.4-4.5 4.5-8.4 8.1-11.6 11.2l-3.3 3.2-0.1-0.1-2.4 2.5-25.7 24.5 1 1-2.1 2.2-90.1 93.2-34 35.1-30.6 31.6c-9.4 9.7-17.2 17.8-23.5 24.5l-10.1 10.6-1.4 1.5c-5.8 6-10.6 11.9-14.2 17.7-3 4.7-5.8 10.1-8.3 15.8-2.4 4.8-4.6 10.7-7.4 19.3-2.4 7.3-4.8 15.3-7.3 24.1-2.4 8.3-4.7 16.4-6.8 24.2-2.8 10.2-4.3 17.4-5.2 23.4-2.9 19.2 0.7 35.7 10.8 48.6 6 7.6 19.1 19.7 42.7 19.7 2.9 0 6-0.2 9.2-0.5l0.8-0.1 0.8-0.1c5-0.8 11.4-2.3 20.7-4.8 7.9-2.1 16.3-4.7 25.7-7.8 8.8-3 17.2-6 25.3-9 8.7-3.4 15.3-6.2 20.4-8.7 6.7-3.1 13.1-7.1 19.1-11.9 4-3.1 7.7-6.3 11-9.3 2.8-2.4 6.2-5.8 12.9-12.7 6.1-6.3 13.5-14.1 22.5-23.5 8.1-8.6 17.5-18.2 29.7-30.5l0.3-0.3 0.2-0.3 33.5-35.1 90-93 29.1-30.1-0.1-0.1 0.3-0.3c2.6-2.3 5.4-5 8.3-8 1.8-1.8 3.9-4 6.3-6.3 2.9-2.9 6.1-6.1 9.7-9.8l0.6-0.6 0.6-0.6c6.6-7.4 11.6-15.7 14.9-24.5 3.2-8.5 4.8-17.5 4.8-26.5 0.1-6.7-0.6-13.3-1.9-19.7z" fill="#FFFFFF" p-id="1501"></path><path d="M765.2 665.3l-33.5 35.1c-11.1 11.3-21.2 21.6-30.2 31-8.9 9.4-16.3 17.1-22.2 23.2-5.9 6.1-9.4 9.5-10.5 10.4-2.8 2.6-6 5.4-9.6 8.2-3.6 2.9-7.4 5.2-11.3 7-3.9 2-9.6 4.4-17.2 7.4-7.6 2.9-15.4 5.7-23.7 8.4-8.2 2.7-16.1 5.1-23.5 7.1-7.4 2-12.9 3.3-16.6 3.9-1.6 0.2-3.2 0.3-4.5 0.3-5 0-8.6-1.2-10.5-3.7-2.5-3.2-3.2-8.5-2.1-16 0.6-4.1 1.9-9.9 4-17.6 2.1-7.7 4.3-15.6 6.7-23.8 2.4-8.3 4.7-15.9 6.9-22.8s4.1-11.7 5.5-14.3c1.7-4 3.6-7.7 5.7-11s5.1-7 9-11c1.7-1.8 5.6-5.9 11.8-12.4 6.1-6.5 13.8-14.5 23.1-24.1l30.6-31.6 34-35.1 90.1-93.2 78.4 81.5-90.4 93.1z m150.5-158.6c-1.4 3.8-3.6 7.4-6.7 10.8-3.3 3.5-6.4 6.5-9 9.1l-6.9 6.9c-2.2 2.3-4.3 4.3-6.3 6.1l-78.4-81c3.4-3.2 7.4-7 11.9-11.5 4.6-4.5 8.5-8 11.5-10.6 3.9-3.1 8-5.4 12.1-6.7 3.8-1.2 7.5-1.8 11.2-1.8h1.2c4 0.2 8 0.8 11.7 1.9 3.8 1.2 7.1 2.5 9.8 3.9 5.9 3.2 12.4 8.7 19.5 16.6 7.1 7.9 12.6 16.3 16.6 24.9 1.1 2.6 2 5.6 2.7 9.1 0.7 3.5 1.1 7.1 1.1 10.8 0.1 3.9-0.6 7.7-2 11.5z" fill="#333333" p-id="1502"></path></svg>