<?xml version="1.0" standalone="no"?><!DOCTYPE svg PUBLIC "-//W3C//DTD SVG 1.1//EN" "http://www.w3.org/Graphics/SVG/1.1/DTD/svg11.dtd"><svg t="1618212283937" class="icon" viewBox="0 0 1024 1024" version="1.1" xmlns="http://www.w3.org/2000/svg" p-id="2939" xmlns:xlink="http://www.w3.org/1999/xlink" width="32" height="32"><defs><style type="text/css"></style></defs><path d="M730.08 910.24a123.36 123.36 0 0 0 0-246.56 123.36 123.36 0 0 0 0 246.56z" fill="#28D900" opacity=".15" p-id="2940"></path><path d="M620 584.64a18.88 18.88 0 1 1-12 36.16 304 304 0 0 0-91.2-13.92 363.04 363.04 0 0 0-342.4 252 68.96 68.96 0 0 0-2.56 34.08c0 1.12 1.92 2.56 6.24 4.16a108.48 108.48 0 0 0 36.16 4.48h330.72a19.04 19.04 0 0 1 0 37.92H214.24c-42.72 0-68.16-9.6-77.44-32a97.12 97.12 0 0 1 1.12-59.52c56.8-167.84 206.88-279.52 379.52-279.52A344.48 344.48 0 0 1 620 584.64zM626.72 864l179.84-180.32 28.16 25.44L651.04 892.8z m103.36 84.64a161.28 161.28 0 0 1 0-322.4 161.28 161.28 0 0 1 0 322.4z m0-37.92a123.36 123.36 0 0 0 0-246.56 123.36 123.36 0 0 0 0 246.56z m-243.36-352A203.52 203.52 0 1 0 284.48 355.2a202.88 202.88 0 0 0 202.24 203.52z m0 37.92a241.44 241.44 0 1 1 240-241.44 240 240 0 0 1-240 241.44zM402.56 441.6A19.04 19.04 0 1 0 432 466.56a82.4 82.4 0 0 1 128 0 18.88 18.88 0 0 0 29.44-23.84 120.32 120.32 0 0 0-185.92-1.12z" fill="#28D900" p-id="2941"></path></svg>