<?xml version="1.0" standalone="no"?><!DOCTYPE svg PUBLIC "-//W3C//DTD SVG 1.1//EN" "http://www.w3.org/Graphics/SVG/1.1/DTD/svg11.dtd"><svg t="1618212768014" class="icon" viewBox="0 0 1024 1024" version="1.1" xmlns="http://www.w3.org/2000/svg" p-id="3076" xmlns:xlink="http://www.w3.org/1999/xlink" width="32" height="32"><defs><style type="text/css"></style></defs><path d="M876.1 474c0-201.2-163.2-364.2-364.3-364.2-201.2 0-364.3 163.1-364.3 364.3v272c0 92.1 45.6 119.5 45.6 119.5 25.1 25 65.9 25 91.1 0 25.1-25 65.9-25 91.1 0 25.1 25 65.9 25 91.1 0 25.1-25 65.9-25 91.1 0 25.1 25 65.9 25 91.1 0 25.1-25 65.9-25 91.1 0 25.1 25 65.9 25 91.1 0 0 0 45.6-31.2 45.6-119.5-0.3-29.7-0.3-145.1-0.3-272.1z" fill="#FF556E" p-id="3077"></path><path d="M875.1 447c-13.8-188.6-171.3-337.3-363.3-337.3-112.3 0-212.7 50.8-279.6 130.7 69.3-61 160.2-97.9 259.7-97.9 186.7 0 343 130.1 383.2 304.5zM876.5 746.1c-0.2-17.5-0.3-64.6-0.4-126.2-20.8 95.6-76.4 178.1-152.8 233.8 5.9 3 11.5 6.9 16.5 11.9 23.8 23.7 61.7 24.9 87.1 3.7 8.7-8.8 17.1-18 25.1-27.5 11.9-18.6 24.5-49.2 24.5-95.7zM147.5 725.6v20.6c0 92.1 45.6 119.5 45.6 119.5 24.3 24.2 63.2 25 88.5 2.4-55.8-35.5-102.1-84.5-134.1-142.5z" fill="#FF556E" p-id="3078"></path><path d="M876.2 619.9V474c0-9.1-0.3-18.1-1-27C835 272.5 678.7 142.4 492 142.4c-99.5 0-190.4 37-259.7 97.9-39.6 47.4-67.3 104.7-78.9 167.8C198.9 274.3 325.5 178 474.7 178c187.3 0 339.2 151.9 339.2 339.2 0 166.7-120.3 305.4-278.9 333.9 8.2 3.1 15.9 7.9 22.5 14.5 25.1 25 65.9 25 91.1 0 20.2-20.1 50.4-24 74.6-11.9 76.6-55.7 132.1-138.2 153-233.8zM147.5 606.8v118.8c32 58 78.3 107.1 134.1 142.5 0.9-0.8 1.8-1.6 2.6-2.4 25.1-25 65.9-25 91.1 0 25.1 25 65.9 25 91.1 0 3.6-3.6 7.5-6.6 11.7-9.2h-3.4c-156.3 0-287.9-105.8-327.2-249.7z" fill="#FF5F71" p-id="3079"></path><path d="M813.9 517.2C813.9 329.9 662 178 474.7 178c-149.2 0-275.8 96.3-321.3 230.1-3.9 21.4-6 43.5-6 66v132.7c39.3 143.9 170.9 249.6 327.2 249.6h3.4c17.2-10.6 38.4-12.4 57-5.3C693.6 822.6 813.9 684 813.9 517.2zM457.5 783.7c-157.4 0-285.1-127.6-285.1-285.1s127.6-285 285.1-285 285.1 127.6 285.1 285.1-127.7 285-285.1 285z" fill="#FF6974" p-id="3080"></path><path d="M457.5 213.6c-157.4 0-285.1 127.6-285.1 285.1s127.6 285 285.1 285 285.1-127.6 285.1-285.1-127.7-285-285.1-285z m-17.3 497.5c-127.6 0-231-103.4-231-231s103.4-231 231-231 231 103.4 231 231-103.4 231-231 231z" fill="#FF7377" p-id="3081"></path><path d="M440.2 249c-127.6 0-231 103.4-231 231s103.4 231 231 231 231-103.4 231-231-103.4-231-231-231zM423 638.5c-97.7 0-176.9-79.2-176.9-176.9s79.2-177 176.9-177 176.9 79.2 176.9 176.9-79.2 177-176.9 177z" fill="#FF7E7A" p-id="3082"></path><path d="M423 284.6c-97.7 0-176.9 79.2-176.9 176.9s79.2 177 176.9 177 176.9-79.2 176.9-176.9-79.2-177-176.9-177z m-17.2 281.1C338 565.7 283 510.8 283 443s55-122.8 122.8-122.8 122.8 55 122.8 122.8-55 122.7-122.8 122.7z" fill="#FF887D" p-id="3083"></path><path d="M405.8 443m-122.8 0a122.8 122.8 0 1 0 245.6 0 122.8 122.8 0 1 0-245.6 0Z" fill="#FF9280" p-id="3084"></path><path d="M266.8 313.3c-5 1.3-10.5 0.4-15-3-7.7-5.8-9.2-16.8-3.4-24.5 44.1-58.1 91.4-90.4 93.4-91.7 8-5.5 18.9-3.3 24.3 4.7s3.3 18.9-4.7 24.3c-0.8 0.5-44.8 30.9-85.1 83.9-2.4 3.2-5.9 5.3-9.5 6.3zM229.7 371.9c-4.2 1.1-8.9 0.6-12.9-1.8-8.5-4.8-11.4-15.5-6.7-23.9l5.4-9.5c4.8-8.5 15.5-11.4 23.9-6.7 8.5 4.8 11.4 15.5 6.7 23.9l-5.4 9.5c-2.5 4.5-6.5 7.4-11 8.5z" fill="#FFFFFF" p-id="3085"></path><path d="M518.2 569.5c-32.9 0-47.9 33.9-54.6 57.2-15.7 54.3 13 33.1 56.4 33.1 45.3 0 67.8 26.6 53-30.6-6.1-23.7-20.8-59.7-54.8-59.7z" fill="#FFC7C7" p-id="3086"></path><path d="M441.7 369.9c-18.2-22.1-26.8 40.4-83 65.7-85.1 38.4-108.9 46.5-94.7 81.3 15.4 37.9 104.3 40 150.7-6.5 40.2-43.4 48.6-114.2 27-140.5zM678 435.7c-56.2-25.3-64.7-87.8-83-65.7-21.6 26.3-13.2 97.1 27 140.5 46.4 46.5 135.3 44.4 150.7 6.5 14.2-34.8-9.6-43-94.7-81.3z" fill="#FFC7C7" p-id="3087"></path><path d="M785.4 893.3c-18.8 0-37.6-7.1-51.9-21.3-21.7-21.5-56.8-21.5-78.4 0-28.7 28.5-75.3 28.5-103.8 0-21.7-21.5-56.8-21.5-78.4 0-28.7 28.5-75.3 28.5-103.8 0-21.7-21.5-56.8-21.5-78.4 0-28.5 28.2-74.5 28.5-103.2 0.7-7.3-5-48.9-37-48.9-126.5v-272c0-50.4 9.9-99.3 29.3-145.3 18.8-44.5 45.7-84.4 80-118.7s74.2-61.2 118.7-80c46-19.5 94.9-29.3 145.3-29.3s99.3 9.9 145.3 29.3c44.5 18.8 84.4 45.7 118.7 80s61.2 74.2 80 118.6c19.5 46 29.4 94.9 29.4 145.3 0 124.6 0 242.4 0.4 272v0.1c0 26.3-4.2 64.6-24.1 97.5-10.7 17.7-21.7 26.6-24.6 28.8-14.5 13.9-33.1 20.8-51.6 20.8zM511.8 118.8c-94.9 0-184.2 37-251.3 104.1S156.4 379.2 156.4 474.2v272c0 24.7 3.6 60 20.7 88.4 10.1 16.8 20.4 23.3 20.5 23.4l0.9 0.6 0.7 0.7c21.6 21.5 56.8 21.5 78.4 0 28.6-28.4 75.1-28.5 103.8 0 21.6 21.5 56.8 21.5 78.5 0 28.6-28.4 75.1-28.5 103.8 0 21.6 21.5 56.8 21.5 78.5 0 28.6-28.4 75.1-28.5 103.8 0 21.6 21.5 56.8 21.5 78.5 0l0.6-0.6 0.7-0.5c0.1 0 10.5-7.5 20.8-24.8 9.5-16.1 20.9-44.3 20.9-87.2-0.4-29.9-0.4-147.6-0.4-272.2 0-94.9-37-184.1-104.1-251.2s-156.3-104-251.2-104z" fill="#EF4868" p-id="3088"></path></svg>