<?xml version="1.0" standalone="no"?><!DOCTYPE svg PUBLIC "-//W3C//DTD SVG 1.1//EN" "http://www.w3.org/Graphics/SVG/1.1/DTD/svg11.dtd"><svg t="1618538942863" class="icon" viewBox="0 0 1024 1024" version="1.1" xmlns="http://www.w3.org/2000/svg" p-id="2233" xmlns:xlink="http://www.w3.org/1999/xlink" width="32" height="32"><defs><style type="text/css"></style></defs><path d="M511.029 510.779m-446.53 0a446.53 446.53 0 1 0 893.06 0 446.53 446.53 0 1 0-893.06 0Z" fill="#76C2AF" p-id="2234"></path><path d="M657.008 678.235c-9.362 0-18.505-4.715-23.786-13.266-8.088-13.123-4.006-30.313 9.11-38.408l141.271-87.097c0.068-0.245 0.095-0.504 0.095-0.777s-0.027-0.531-0.095-0.777l-141.271-87.097c-13.116-8.094-17.197-25.285-9.11-38.408 8.088-13.116 25.285-17.197 38.408-9.11l148.33 91.458 2.303 2.303c11.126 11.12 17.252 25.898 17.252 41.63 0 15.719-6.125 30.504-17.245 41.624l-2.31 2.31-148.33 91.458a27.797 27.797 0 0 1-14.622 4.157zM365.049 678.235a27.796 27.796 0 0 1-14.622-4.156l-148.33-91.458-2.31-2.31c-11.12-11.12-17.245-25.905-17.245-41.624 0-15.732 6.125-30.511 17.252-41.63l2.303-2.303 148.33-91.458c13.13-8.088 30.306-4.006 38.408 9.11 8.088 13.123 4.006 30.313-9.11 38.408l-141.271 87.097c-0.068 0.245-0.095 0.504-0.095 0.777s0.027 0.531 0.095 0.777l141.271 87.097c13.116 8.094 17.197 25.285 9.11 38.408-5.273 8.55-14.424 13.265-23.786 13.265z" fill="#231F20" p-id="2235"></path><path d="M420.321 803.821c-3.311 0-6.684-0.593-9.961-1.846-14.397-5.505-21.606-21.64-16.1-36.037L575.662 291.5c5.505-14.397 21.64-21.612 36.037-16.1 14.397 5.505 21.606 21.64 16.1 36.037L446.396 785.874c-4.252 11.12-14.84 17.947-26.075 17.947z" fill="#231F20" p-id="2236"></path><path d="M657.008 650.32c-9.362 0-18.512-4.701-23.786-13.259-8.088-13.123-4.006-30.32 9.116-38.401l141.251-87.09a2.967 2.967 0 0 0 0-1.581l-141.251-87.09c-13.123-8.081-17.204-25.278-9.116-38.401 8.094-13.123 25.271-17.211 38.401-9.103l148.344 91.451 2.31 2.303c22.941 22.962 22.941 60.3 0 83.261l-2.31 2.303-148.344 91.451a27.7 27.7 0 0 1-14.615 4.156zM365.049 650.32a27.708 27.708 0 0 1-14.615-4.156L202.09 554.713l-2.31-2.303c-22.941-22.961-22.941-60.299 0-83.261l2.31-2.303 148.344-91.451c13.102-8.108 30.32-4.02 38.401 9.103 8.088 13.123 4.006 30.32-9.116 38.401l-141.251 87.09a2.967 2.967 0 0 0 0 1.581l141.251 87.09c13.123 8.081 17.204 25.278 9.116 38.401-5.273 8.557-14.424 13.259-23.786 13.259z" fill="#FFFFFF" p-id="2237"></path><path d="M420.321 775.92c-3.311 0-6.684-0.6-9.961-1.853-14.397-5.505-21.606-21.64-16.1-36.03l181.403-474.438c5.505-14.39 21.64-21.626 36.037-16.107 14.397 5.505 21.606 21.64 16.1 36.03L446.396 757.959c-4.252 11.12-14.84 17.961-26.075 17.961z" fill="#FFFFFF" p-id="2238"></path></svg>