<?xml version="1.0" standalone="no"?><!DOCTYPE svg PUBLIC "-//W3C//DTD SVG 1.1//EN" "http://www.w3.org/Graphics/SVG/1.1/DTD/svg11.dtd"><svg t="1618194101432" class="icon" viewBox="0 0 1024 1024" version="1.1" xmlns="http://www.w3.org/2000/svg" p-id="1958" xmlns:xlink="http://www.w3.org/1999/xlink" width="32" height="32"><defs><style type="text/css"></style></defs><path d="M934.911577 142.847857A140.799859 140.799859 0 0 0 794.111718 0H427.008085a38.399962 38.399962 0 0 0 0 76.799923h63.999936v324.095676a38.399962 38.399962 0 0 0 63.487937 28.671971l85.503914-74.751925 80.895919 74.239926a38.399962 38.399962 0 0 0 26.111974 10.23999 37.887962 37.887962 0 0 0 15.359985-3.071997 38.399962 38.399962 0 0 0 23.039977-35.327965V78.847921h8.703991a63.999936 63.999936 0 0 1 63.999936 63.999936v582.655417H210.944301a147.455853 147.455853 0 0 0-72.703927 19.455981V142.847857A63.999936 63.999936 0 0 1 204.800307 78.847921h30.719969a38.399962 38.399962 0 0 0 0-76.799923H204.800307a140.799859 140.799859 0 0 0-143.359856 140.799859V870.39913a148.991851 148.991851 0 0 0 149.50385 153.599846h685.567314a38.399962 38.399962 0 0 0 0-76.799923c-41.471959 0-51.199949-38.911961-51.199948-71.167929a102.399898 102.399898 0 0 1 51.199948-71.679928 38.399962 38.399962 0 0 0 38.399962-38.399962 36.351964 36.351964 0 0 0 0-7.679992 36.351964 36.351964 0 0 0 0-7.679993z m-225.791774 171.007829L665.599846 274.943725a38.399962 38.399962 0 0 0-51.199948 0l-48.127952 41.983958V78.847921h141.311858z m73.727926 631.295369H210.944301a72.191928 72.191928 0 0 1-72.703927-70.14393 70.655929 70.655929 0 0 1 21.503978-51.199949 72.191928 72.191928 0 0 1 51.199949-21.503978h580.09542a143.359857 143.359857 0 0 0-21.503979 71.679928 190.46381 190.46381 0 0 0 12.799988 71.167929z" fill="#438CFF" p-id="1959"></path></svg>