<?xml version="1.0" standalone="no"?><!DOCTYPE svg PUBLIC "-//W3C//DTD SVG 1.1//EN" "http://www.w3.org/Graphics/SVG/1.1/DTD/svg11.dtd"><svg t="1614432288006" class="icon" viewBox="0 0 1024 1024" version="1.1" xmlns="http://www.w3.org/2000/svg" p-id="1758" xmlns:xlink="http://www.w3.org/1999/xlink" width="200" height="200"><defs><style type="text/css"></style></defs><path d="M779.618462 716.8c-52.932923 88.536615-150.528 143.163077-256.157539 143.36-105.708308-0.196923-203.303385-54.823385-256.315077-143.36a39.896615 39.896615 0 0 1-1.260308-41.905231c7.837538-13.351385 22.173538-21.346462 37.533539-21.031384 15.556923 0.196923 29.656615 8.664615 36.824615 21.976615 37.966769 63.291077 107.677538 102.281846 183.217231 102.4 75.460923-0.118154 145.132308-39.108923 182.980923-102.4a42.535385 42.535385 0 0 1 36.667077-20.676923c14.966154-0.157538 28.908308 7.601231 36.706462 20.48 7.601231 12.642462 7.561846 28.553846-0.118154 41.156923m116.105846-512H134.340923C87.827692 204.8 50.215385 241.309538 50.136615 286.365538v655.911385C50.136615 987.372308 87.867077 1024 134.340923 1024h761.462154c46.552615-0.078769 84.125538-36.588308 84.204308-81.644308V286.444308c0-45.056-37.730462-81.565538-84.204308-81.644308m-380.731077-122.88c69.947077 0 126.818462 55.138462 126.818462 122.88h84.519384c0-112.915692-94.798769-204.8-211.337846-204.8C398.572308 0 303.734154 91.884308 303.734154 204.8H388.332308c0-67.741538 56.871385-122.88 126.818461-122.88" fill="#F6B931" p-id="1759"></path></svg>