<?xml version="1.0" standalone="no"?><!DOCTYPE svg PUBLIC "-//W3C//DTD SVG 1.1//EN" "http://www.w3.org/Graphics/SVG/1.1/DTD/svg11.dtd"><svg t="1614415123404" class="icon" viewBox="0 0 1024 1024" version="1.1" xmlns="http://www.w3.org/2000/svg" p-id="5271" xmlns:xlink="http://www.w3.org/1999/xlink" width="200" height="200"><defs><style type="text/css"></style></defs><path d="M958.506558 156.380173c-83.960968 0-139.93394-55.973979-139.93394-139.93394L510.71775 44.434229 202.860867 16.446233c0 83.959961-55.971965 139.93394-139.932933 139.93394-55.973979 643.697734 447.789816 867.590628 447.789816 867.590628S1014.480537 800.077907 958.506558 156.380173zM603.766736 435.850338l111.348869 0 0 99.657082L568.175856 535.50742l0 43.425344 146.940756 0 0 100.429352L568.175856 679.362116l0 120.715791L453.091495 800.077907 453.091495 679.363123l-152.339599 0 0-100.429352 152.339599 0 0-43.425344-152.339599 0 0-99.657082 115.373333 0L257.614518 163.567218l131.277869 0c0 0 100.673015 185.858338 123.597456 231.78777 7.314919-14.774827 124.463365-231.78777 124.463365-231.78777l126.866767 0L603.766736 435.850338z" fill="#1296db" p-id="5272"></path></svg>