<?xml version="1.0" standalone="no"?><!DOCTYPE svg PUBLIC "-//W3C//DTD SVG 1.1//EN" "http://www.w3.org/Graphics/SVG/1.1/DTD/svg11.dtd"><svg t="1614415216522" class="icon" viewBox="0 0 1024 1024" version="1.1" xmlns="http://www.w3.org/2000/svg" p-id="6819" xmlns:xlink="http://www.w3.org/1999/xlink" width="200" height="200"><defs><style type="text/css"></style></defs><path d="M853.318872 128.024909h-177.06146a41.121054 41.121054 0 0 1-40.549361-32.014802 127.732529 127.732529 0 0 0-247.461358 0 41.121054 41.121054 0 0 1-40.549362 32.014802H170.635871A62.845385 62.845385 0 0 0 106.687936 191.972845v768.028584a62.845385 62.845385 0 0 0 63.988771 63.988771h682.60133a62.845385 62.845385 0 0 0 63.98877-63.988771V191.972845a62.845385 62.845385 0 0 0-63.98877-63.988771z m-383.850951 0h85.345583a20.172593 20.172593 0 0 1 21.315979 21.315979 20.172593 20.172593 0 0 1-21.315979 21.315978h-85.345583a20.172593 20.172593 0 0 1-21.315979-21.315978 20.172593 20.172593 0 0 1 21.193473-21.315979z m127.97754 661.326188H256.144796a21.315978 21.315978 0 0 1 0-42.672792h341.300665a21.315978 21.315978 0 0 1 0 42.672792z m85.345584-191.925476H256.02229a21.315978 21.315978 0 0 1 0-42.672792h426.646249a21.315978 21.315978 0 0 1 0 42.672792z m85.345584-191.925476H256.02229a21.315978 21.315978 0 0 1 0-42.672792h511.950998a21.315978 21.315978 0 0 1 0 42.672792z" fill="#5d7def" p-id="6820"></path></svg>