<?xml version="1.0" standalone="no"?><!DOCTYPE svg PUBLIC "-//W3C//DTD SVG 1.1//EN" "http://www.w3.org/Graphics/SVG/1.1/DTD/svg11.dtd"><svg t="1614668704900" class="icon" viewBox="0 0 1123 1024" version="1.1" xmlns="http://www.w3.org/2000/svg" p-id="3721" xmlns:xlink="http://www.w3.org/1999/xlink" width="219.3359375" height="200"><defs><style type="text/css"></style></defs><path d="M997.746204 123.606257L304.971917 534.972531l613.785644 204.152731L1070.163432 107.150289l-72.417228 16.455968z" fill="#BCD1FE" p-id="3722"></path><path d="M1118.313592 22.522734a40.020913 40.020913 0 0 0-53.525776-17.958946l-1042.661067 517.814442A40.020913 40.020913 0 0 0 4.178774 575.95886a40.591386 40.591386 0 0 0 8.304778 11.310735 39.96606 39.96606 0 0 0 15.633169 9.303107l350.764431 110.200129 53.865867-66.83317-286.26801-89.959288 785.322649-390.335548-420.098908 508.555218a29.116092 29.116092 0 0 0-2.654896 3.653225l-48.545104 60.338547v250.372059a39.900236 39.900236 0 0 0 79.800472 0V757.139061l381.526119 119.689737a41.84204 41.84204 0 0 0 13.460982 1.832098 40.174502 40.174502 0 0 0 40.393914-32.747376l146.128991-798.125391a45.286822 45.286822 0 0 0 0.66921-8.151189 40.009942 40.009942 0 0 0-4.168846-17.114206zM905.197844 788.054339L596.483895 691.150632l419.594257-508.050568z" fill="#3C7BFE" p-id="3723"></path></svg>