<?xml version="1.0" standalone="no"?><!DOCTYPE svg PUBLIC "-//W3C//DTD SVG 1.1//EN" "http://www.w3.org/Graphics/SVG/1.1/DTD/svg11.dtd"><svg t="1614668679754" class="icon" viewBox="0 0 1136 1024" version="1.1" xmlns="http://www.w3.org/2000/svg" p-id="2877" xmlns:xlink="http://www.w3.org/1999/xlink" width="221.875" height="200"><defs><style type="text/css"></style></defs><path d="M1131.439228 1019.069479c34.07464-423.159488-245.654384-669.606306-554.703448-669.606306S-15.212044 596.702424 0.636626 1019.069479h565.005085c282.106325 0 338.369104 11.094069 565.797517 0z" fill="#48CFAD" p-id="2878"></path><path d="M1073.591583 0q67.356847 79.24335-34.867074 588.778089l-237.730049-190.184039q136.298562-51.508177 272.597123-398.59405zM79.879976 0q-67.356847 79.24335 34.867074 588.778089L353.269533 396.216749Q216.178538 347.085872 79.879976 0zM517.303267 346.293439h118.865025v507.157439h-118.865025z" fill="#434A54" p-id="2879"></path><path d="M634.583425 854.243311H517.303267V346.293439h18.225971a461.988729 461.988729 0 0 1 79.24335 0h18.22597z m-79.24335-39.621675h38.829242V383.537813H555.340075z" fill="#434A54" p-id="2880"></path><path d="M13.315562 828.885439h1114.161499v39.621675H13.315562z" fill="#434A54" p-id="2881"></path></svg>