<?xml version="1.0" standalone="no"?><!DOCTYPE svg PUBLIC "-//W3C//DTD SVG 1.1//EN" "http://www.w3.org/Graphics/SVG/1.1/DTD/svg11.dtd"><svg t="1614415427891" class="icon" viewBox="0 0 1024 1024" version="1.1" xmlns="http://www.w3.org/2000/svg" p-id="12699" xmlns:xlink="http://www.w3.org/1999/xlink" width="200" height="200"><defs><style type="text/css"></style></defs><path d="M750.933333 0H273.066667C122.88 0 0 122.88 0 273.066667v477.866666c0 150.186667 122.88 273.066667 273.066667 273.066667h477.866666c150.186667 0 273.066667-122.88 273.066667-273.066667V273.066667c0-150.186667-122.88-273.066667-273.066667-273.066667zM368.64 419.84c0-13.653333 8.533333-18.773333 20.48-18.773333 0 0-8.533333-34.133333-3.413333-40.96 6.826667-6.826667 20.48-8.533333 23.893333-17.066667 3.413333-8.533333 8.533333-69.973333 18.773333-71.68 10.24-1.706667 64.853333 11.946667 81.92 13.653333 15.36 1.706667 76.8 5.12 85.333334 11.946667 8.533333 6.826667 15.36 29.013333 23.893333 35.84 8.533333 8.533333 23.893333 0 27.306667 10.24 3.413333 8.533333-8.533333 58.026667-8.533334 58.026667 11.946667 1.706667 18.773333 6.826667 18.773334 18.773333v54.613333c0 13.653333-8.533333 18.773333-18.773334 20.48-13.653333 64.853333-69.973333 131.413333-124.586666 131.413334s-109.226667-66.56-124.586667-131.413334c-11.946667-1.706667-20.48-6.826667-20.48-22.186666v-52.906667z m175.786667 336.213333v-30.72c0-17.066667-13.653333-49.493333-32.426667-49.493333-17.066667 0-32.426667 30.72-32.426667 49.493333v30.72H256s78.506667-128 95.573333-128h145.066667c-8.533333 0-15.36 6.826667-15.36 17.066667 0 8.533333 6.826667 15.36 15.36 15.36H529.066667c8.533333 0 15.36-6.826667 15.36-15.36s-6.826667-17.066667-15.36-17.066667h143.36c17.066667 0 95.573333 128 95.573333 128H544.426667z" fill="#3399FF" p-id="12700"></path></svg>