<?xml version="1.0" standalone="no"?><!DOCTYPE svg PUBLIC "-//W3C//DTD SVG 1.1//EN" "http://www.w3.org/Graphics/SVG/1.1/DTD/svg11.dtd"><svg t="1614668650802" class="icon" viewBox="0 0 1024 1024" version="1.1" xmlns="http://www.w3.org/2000/svg" p-id="2102" xmlns:xlink="http://www.w3.org/1999/xlink" width="200" height="200"><defs><style type="text/css"></style></defs><path d="M500.217 744.341c31.52 0 61.125-6.039 89.257-17.969 27.985-11.93 52.14-28.427 72.909-49.342 20.62-21.063 36.822-45.218 48.753-72.908 11.783-27.69 17.822-57.296 17.822-88.816s-6.04-61.125-17.822-88.669c-11.93-27.69-28.133-51.846-48.753-72.466s-44.924-36.823-72.909-48.753c-27.985-11.93-57.737-17.97-89.257-17.97s-60.978 5.892-88.669 17.97c-27.69 11.93-51.846 28.132-72.319 48.9-20.62 20.62-36.822 44.924-48.753 72.467-11.783 27.543-17.822 57.148-17.822 88.668 0 31.52 6.04 61.125 17.822 88.816 11.93 27.543 28.133 51.993 48.753 72.908 20.62 21.063 44.629 37.412 72.32 49.342 27.543 11.783 57.148 17.822 88.668 17.822z m487.529-94.56c1.325 8.396 0.883 18.559-1.031 30.342-2.062 11.93-5.597 24.008-10.458 36.233-5.008 12.078-10.9 23.272-17.822 33.14-6.923 9.722-14.582 16.791-23.124 21.063-8.396 4.271-15.76 6.333-21.947 6.333-6.333 0-13.256-1.325-20.915-4.124-6.922-2.062-15.76-3.83-26.217-5.744-10.458-1.768-21.21-2.21-32.11-1.031-10.899 0.884-21.651 3.24-32.403 6.775-10.9 3.535-20.179 9.574-27.838 17.97-16.791 17.527-26.512 37.411-29.31 59.8-2.652 22.387 0.294 43.744 9.426 64.07 6.923 13.993 6.039 27.985-3.093 42.125-4.272 5.597-10.9 11.489-20.032 17.233-9.131 6.039-19.147 11.489-29.752 16.35-10.9 5.007-22.093 8.836-34.024 11.488-11.93 2.798-22.388 4.124-31.52 4.124-6.333 0-12.225-2.357-17.822-7.365-5.597-5.008-9.28-10.163-11.489-15.76h-0.883c-7.66-21.651-20.915-40.357-39.327-56.264-18.558-15.76-39.915-23.714-64.513-23.714-23.86 0-45.218 7.954-64.512 23.714-19.148 15.76-32.699 34.17-40.358 55.086-3.535 8.395-8.69 14.434-15.76 18.411-6.922 3.83-14.582 5.744-23.124 5.744-9.721 0-20.768-1.767-32.993-5.155-12.225-3.682-24.45-7.953-36.823-13.108-12.225-5.156-23.271-11.342-33.14-18.412-9.72-6.922-17.085-13.992-21.946-21.062-3.535-5.008-5.45-10.605-5.744-17.233-0.295-6.628 2.21-15.907 7.953-27.838 7.66-16.202 10.753-34.465 8.985-55.086-1.767-20.62-10.752-39.768-26.807-57.296-9.72-10.457-21.651-17.233-35.644-20.473-13.992-3.24-27.396-4.419-39.768-3.682-14.582 0.736-29.753 3.535-45.07 8.395-9.722 2.651-19.59 2.062-29.311-2.21-7.66-2.798-14.877-9.278-21.505-19.441-6.775-10.163-12.666-21.357-17.822-33.582-5.302-12.225-9.279-24.892-12.077-37.854-2.799-12.961-3.535-23.566-2.062-31.962 2.209-15.465 9.132-25.186 21.062-29.458 20.915-8.395 39.768-22.093 56.56-41.535 16.79-19.148 25.186-40.8 25.186-64.513 0-24.45-8.396-45.807-25.187-64.071-16.79-18.117-35.644-31.52-56.559-39.768-6.333-2.062-11.489-7.218-15.76-15.319-4.124-8.1-6.333-16.349-6.333-24.597 0-9.132 1.472-19.148 4.27-30.342a213.476 213.476 0 0 1 11.048-32.698 164.402 164.402 0 0 1 15.76-28.869c5.891-8.69 12.372-15.17 19.442-19.442 5.597-3.535 11.047-5.008 16.202-4.124 5.155 0.736 11.046 2.062 17.38 4.124 20.915 8.396 42.714 11.047 65.544 7.954 22.682-3.24 42.714-13.11 60.389-29.9 8.395-8.396 14.434-18.559 18.41-30.93 3.83-12.226 6.334-24.451 7.365-36.234 0.884-11.93 0.884-22.683 0-32.551-1.03-9.721-1.914-16.791-2.65-21.063-1.474-4.271-2.652-9.132-3.83-14.729-0.884-5.597-0.442-10.457 1.62-14.581 4.124-9.721 11.636-18.411 22.535-25.776s22.535-13.403 35.202-18.411c12.667-5.008 24.745-8.543 36.823-11.047 11.783-2.357 21.357-3.682 28.28-3.682 9.131 0 16.201 2.946 21.504 8.985 5.302 6.038 8.984 12.077 11.046 18.41 7.66 18.854 20.326 35.645 37.854 49.785 17.38 14.287 38.148 21.504 61.862 21.504 24.45 0 46.101-6.775 65.102-20.473 18.853-13.698 32.109-30.931 39.768-52.14 2.798-5.598 7.217-11.342 13.256-17.381 5.891-5.892 12.078-8.985 18.264-8.985 9.72 0 20.473 1.473 32.109 4.124 11.489 2.799 22.83 6.628 34.024 11.489 11.194 5.008 21.504 11.047 30.93 18.853 9.28 7.806 16.939 16.202 22.536 25.187 3.535 5.597 4.566 11.635 3.24 18.41-1.325 6.629-2.798 11.49-4.271 14.14-9.132 20.327-11.783 41.684-8.248 64.072 3.535 22.535 13.698 42.124 30.341 58.768 16.791 16.791 37.412 26.07 61.862 27.838 24.45 1.767 47.28-2.21 68.195-12.078 5.597-3.535 12.373-5.008 20.326-4.124 8.101 0.737 14.876 3.83 20.326 9.427 10.458 9.72 19.737 24.597 27.838 44.628 8.1 19.885 13.403 40.063 16.202 60.39 1.325 11.93-0.59 21.209-5.745 27.837-5.302 6.628-10.752 11.047-16.201 13.109-21.652 7.806-40.21 21.21-55.676 40.357-15.76 19.884-23.419 41.683-23.419 66.28 0 23.861 6.48 44.63 19.295 62.599s29.9 30.636 50.962 38.295c5.008 2.798 9.132 5.597 12.667 8.395 7.07 6.04 12.372 14.14 15.024 23.861z m0 0" fill="#ED73B9" p-id="2103"></path></svg>