<?xml version="1.0" standalone="no"?><!DOCTYPE svg PUBLIC "-//W3C//DTD SVG 1.1//EN" "http://www.w3.org/Graphics/SVG/1.1/DTD/svg11.dtd"><svg t="1614668732250" class="icon" viewBox="0 0 1024 1024" version="1.1" xmlns="http://www.w3.org/2000/svg" p-id="4490" xmlns:xlink="http://www.w3.org/1999/xlink" width="200" height="200"><defs><style type="text/css"></style></defs><path d="M739.766694 836.753688a72.996519 72.996519 0 0 1 33.645691-97.865073 73.581662 73.581662 0 0 1 98.303929 33.499405l71.972521 146.28561A73.142805 73.142805 0 0 1 877.714024 1023.999269H147.163689a73.142805 73.142805 0 0 1-63.12224-110.591921l192.438719-321.096914c20.772557-34.66969 65.828524-46.006824 100.717643-25.30741a72.996519 72.996519 0 0 1 25.453696 100.278785L276.480168 877.713659h483.400798l-20.187414-40.959971z" fill="#394648" p-id="4491"></path><path d="M512 365.714024m-365.714024 0a365.714024 365.714024 0 1 0 731.428048 0 365.714024 365.714024 0 1 0-731.428048 0Z" fill="#57BFB5" p-id="4492"></path></svg>