<?xml version="1.0" standalone="no"?><!DOCTYPE svg PUBLIC "-//W3C//DTD SVG 1.1//EN" "http://www.w3.org/Graphics/SVG/1.1/DTD/svg11.dtd"><svg t="1618539003052" class="icon" viewBox="0 0 1024 1024" version="1.1" xmlns="http://www.w3.org/2000/svg" p-id="2904" xmlns:xlink="http://www.w3.org/1999/xlink" width="32" height="32"><defs><style type="text/css"></style></defs><path d="M768 834.4a180.16 180.16 0 0 0 0-360.32 180.16 180.16 0 0 0 0 360.32z" fill="#28D900" opacity=".15" p-id="2905"></path><path d="M891.2 385.44a19.04 19.04 0 0 1-37.92 0V227.52A37.92 37.92 0 0 0 816 189.6l-682.72 1.28a37.76 37.76 0 0 0-38.4 37.92v529.76a37.92 37.92 0 0 0 37.92 37.92H536a19.04 19.04 0 1 1 0 37.92H132.8a75.84 75.84 0 0 1-75.84-75.84V228.8a75.84 75.84 0 0 1 75.68-75.84L816 151.68a76 76 0 0 1 76 75.84z m-549.92-34.56a19.04 19.04 0 0 1 0-37.92h388.8a19.04 19.04 0 0 1 0 37.92h-388.8z m0 132.64a19.04 19.04 0 0 1 0-37.92h208a19.04 19.04 0 1 1 0 37.92z m0 132.8a19.04 19.04 0 0 1 0-37.92h113.76a19.04 19.04 0 1 1 0 37.92z m-104.32-256a28.48 28.48 0 0 1 0-56.96 28.48 28.48 0 1 1 0 56.96z m0 132.64a28.48 28.48 0 0 1 0-56.8 28.48 28.48 0 1 1 0 56.8z m0 132.8a28.48 28.48 0 1 1 28.48-28.48 28.32 28.32 0 0 1-28.48 28.48z m630.24-6.24c5.6-5.6 12.32-1.76 10.72 8.32a51.36 51.36 0 0 1-58.56 42.88h-2.88L730.4 756.8a28 28 0 0 1-39.68-39.68l86.08-86.08A51.52 51.52 0 0 1 816 569.6h2.88c10.24-1.6 13.92 5.12 8.32 10.72l-10.24 10.24a28 28 0 1 0 39.68 39.68L866.88 620zM768 872.32a218.08 218.08 0 1 1 218.08-218.08A218.08 218.08 0 0 1 768 872.32z m0-37.92a180.16 180.16 0 0 0 0-360.32 180.16 180.16 0 0 0 0 360.32z" fill="#28D900" p-id="2906"></path></svg>